<svg width="24" height="17" viewBox="0 0 24 17" fill="none" xmlns="http://www.w3.org/2000/svg">
<path d="M19.7194 5.10154C18.9852 3.39577 17.7184 1.98079 16.1133 1.07355C14.5082 0.166315 12.6534 -0.183107 10.8333 0.0788611C9.01312 0.34083 7.32812 1.19973 6.03659 2.52387C4.74507 3.84801 3.91832 5.5643 3.6831 7.4096C2.5387 7.68696 1.5348 8.38 0.862037 9.35711C0.189277 10.3342 -0.105485 11.5273 0.0337276 12.7099C0.17294 13.8925 0.736432 14.9821 1.61719 15.7719C2.49796 16.5617 3.63465 16.9966 4.81141 16.9941H18.0149C19.4545 16.9901 20.8448 16.4625 21.932 15.5076C23.0193 14.5527 23.7312 13.234 23.9378 11.7922C24.1445 10.3503 23.8321 8.88132 23.0577 7.65311C22.2834 6.42491 21.0985 5.51933 19.7194 5.10154ZM18.0149 14.5646H4.81141C4.17472 14.5646 3.5641 14.3086 3.1139 13.853C2.66369 13.3974 2.41076 12.7794 2.41076 12.1351C2.41076 11.4907 2.66369 10.8727 3.1139 10.4171C3.5641 9.96148 4.17472 9.70551 4.81141 9.70551C5.12975 9.70551 5.43506 9.57753 5.66016 9.34972C5.88526 9.1219 6.01172 8.81292 6.01172 8.49074C6.01479 7.05401 6.521 5.66489 7.44043 4.57018C8.35985 3.47546 9.63296 2.74604 11.0336 2.5115C12.4342 2.27695 13.8716 2.55247 15.0904 3.28911C16.3093 4.02575 17.2306 5.17581 17.6908 6.53497C17.7613 6.74145 17.8854 6.9249 18.0501 7.06599C18.2149 7.20709 18.4142 7.30061 18.6271 7.33671C19.5069 7.50101 20.2948 7.9909 20.8373 8.71094C21.3797 9.43098 21.6379 10.3296 21.5615 11.2318C21.4851 12.1339 21.0796 12.9749 20.4239 13.5911C19.7683 14.2072 18.9095 14.5542 18.0149 14.5646Z" fill="white" fill-opacity="0.7"/>
</svg>
