<svg width="56" height="66" viewBox="0 0 56 66" fill="none" xmlns="http://www.w3.org/2000/svg">
<g clip-path="url(#clip0_2128_389)">
<path d="M47.1152 16.9822C47.1658 16.681 47.1965 16.3767 47.2072 16.0715C47.2115 14.5089 46.6967 12.9892 45.7437 11.7509C44.7907 10.5126 43.4534 9.62595 41.9419 9.23008C40.4303 8.83421 38.8301 8.95157 37.3924 9.56374C35.9548 10.1759 34.7612 11.2482 33.999 12.6123C33.544 12.4383 33.0632 12.3411 32.5762 12.3247C31.987 12.3246 31.4035 12.4405 30.859 12.6659C30.3146 12.8913 29.8199 13.2218 29.4031 13.6384C28.9864 14.055 28.6559 14.5497 28.4303 15.094C28.2048 15.6384 28.0887 16.2219 28.0887 16.8112C28.0887 16.8368 28.1026 16.8582 28.1037 16.8828C26.9583 16.9661 25.8901 17.4914 25.125 18.3478C24.3599 19.2042 23.9577 20.3246 24.0035 21.4721C24.0493 22.6196 24.5395 23.7043 25.3705 24.497C26.2014 25.2897 27.3081 25.7282 28.4564 25.7199H46.2718C47.4532 25.7199 48.5862 25.2506 49.4215 24.4153C50.2569 23.5799 50.7262 22.4469 50.7262 21.2656C50.7171 20.2429 50.3514 19.2554 49.6923 18.4735C49.0331 17.6915 48.1217 17.1641 47.1152 16.9822Z" fill="white" fill-opacity="0.8"/>
</g>
<path d="M17.088 63.448C13.2053 63.448 10.0267 62.7227 7.552 61.272C5.07733 59.8213 3.84 57.4533 3.84 54.168C3.84 53.8267 3.84 53.528 3.84 53.272C3.88267 52.9733 3.92533 52.7387 3.968 52.568C4.13867 51.3733 4.50133 49.9013 5.056 48.152C5.61067 46.4027 6.25067 44.5467 6.976 42.584C7.70133 40.5787 8.40533 38.616 9.088 36.696C9.77067 34.776 10.3467 33.0267 10.816 31.448C11.2853 29.8267 11.52 28.5253 11.52 27.544C11.52 26.4347 11.1573 25.88 10.432 25.88C9.62133 25.88 8.61867 26.4987 7.424 27.736C6.22933 28.9307 4.97067 30.616 3.648 32.792L3.264 32.6C3.264 29.784 3.81867 27.352 4.928 25.304C6.03733 23.256 7.50933 21.5707 9.344 20.248C11.1787 18.8827 13.2267 17.88 15.488 17.24C17.7493 16.6 20.032 16.28 22.336 16.28C25.1947 16.28 27.8827 16.7493 30.4 17.688C32.9173 18.584 34.9653 19.8853 36.544 21.592C38.1653 23.2987 38.976 25.3893 38.976 27.864C38.976 32.3013 36.2667 35.7573 30.848 38.232C34.048 38.9573 36.3947 40.1733 37.888 41.88C39.3813 43.5867 40.128 45.4853 40.128 47.576C40.128 49.4107 39.5733 51.2667 38.464 53.144C37.3973 54.9787 35.8613 56.6853 33.856 58.264C31.8507 59.8 29.4187 61.0587 26.56 62.04C23.744 62.9787 20.5867 63.448 17.088 63.448ZM19.584 36.312C21.5467 36.3547 23.2533 36.056 24.704 35.416C26.1973 34.7333 27.3493 33.88 28.16 32.856C29.0133 31.7893 29.44 30.7013 29.44 29.592C29.44 28.1413 28.672 26.8613 27.136 25.752C25.6 24.6 23.1893 24.024 19.904 24.024C20.0747 24.8347 20.1813 25.6453 20.224 26.456C20.3093 27.2667 20.352 28.056 20.352 28.824C20.352 30.0613 20.2667 31.2987 20.096 32.536C19.968 33.7733 19.7973 35.032 19.584 36.312ZM18.88 55.64C20.7147 55.64 22.336 55.2773 23.744 54.552C25.152 53.784 26.2613 52.824 27.072 51.672C27.8827 50.4773 28.288 49.2613 28.288 48.024C28.288 46.3173 27.4773 44.7387 25.856 43.288C24.2347 41.8373 21.696 40.9413 18.24 40.6C18.0693 41.9227 17.7067 43.3307 17.152 44.824C16.64 46.3173 16.1493 47.7467 15.68 49.112C15.2107 50.4773 14.976 51.672 14.976 52.696C14.976 53.592 15.2533 54.3173 15.808 54.872C16.3627 55.384 17.3867 55.64 18.88 55.64Z" fill="#7267FF"/>
<defs>
<clipPath id="clip0_2128_389">
<rect width="31" height="31" fill="white" transform="translate(25)"/>
</clipPath>
</defs>
</svg>
