<svg width="88" height="88" viewBox="0 0 88 88" fill="none" xmlns="http://www.w3.org/2000/svg">
<circle cx="44" cy="44" r="44" fill="black"/>
<g clip-path="url(#clip0_2128_379)">
<path d="M69.1152 21.9822C69.1658 21.681 69.1965 21.3767 69.2072 21.0715C69.2115 19.5089 68.6967 17.9892 67.7437 16.7509C66.7907 15.5126 65.4534 14.626 63.9419 14.2301C62.4303 13.8342 60.8301 13.9516 59.3924 14.5637C57.9548 15.1759 56.7612 16.2482 55.999 17.6123C55.544 17.4383 55.0632 17.3411 54.5762 17.3247C53.987 17.3246 53.4035 17.4405 52.859 17.6659C52.3146 17.8913 51.8199 18.2218 51.4031 18.6384C50.9864 19.055 50.6559 19.5497 50.4303 20.094C50.2048 20.6384 50.0887 21.2219 50.0887 21.8112C50.0887 21.8368 50.1026 21.8582 50.1037 21.8828C48.9583 21.9661 47.8901 22.4914 47.125 23.3478C46.3599 24.2042 45.9577 25.3246 46.0035 26.4721C46.0493 27.6196 46.5395 28.7043 47.3705 29.497C48.2014 30.2897 49.3081 30.7282 50.4564 30.7199H68.2718C69.4532 30.7199 70.5862 30.2506 71.4215 29.4153C72.2569 28.5799 72.7262 27.4469 72.7262 26.2656C72.7171 25.2429 72.3514 24.2554 71.6923 23.4735C71.0331 22.6915 70.1217 22.1641 69.1152 21.9822Z" fill="white" fill-opacity="0.83"/>
</g>
<path d="M39.088 68.448C35.2053 68.448 32.0267 67.7227 29.552 66.272C27.0773 64.8213 25.84 62.4533 25.84 59.168C25.84 58.8267 25.84 58.528 25.84 58.272C25.8827 57.9733 25.9253 57.7387 25.968 57.568C26.1387 56.3733 26.5013 54.9013 27.056 53.152C27.6107 51.4027 28.2507 49.5467 28.976 47.584C29.7013 45.5787 30.4053 43.616 31.088 41.696C31.7707 39.776 32.3467 38.0267 32.816 36.448C33.2853 34.8267 33.52 33.5253 33.52 32.544C33.52 31.4347 33.1573 30.88 32.432 30.88C31.6213 30.88 30.6187 31.4987 29.424 32.736C28.2293 33.9307 26.9707 35.616 25.648 37.792L25.264 37.6C25.264 34.784 25.8187 32.352 26.928 30.304C28.0373 28.256 29.5093 26.5707 31.344 25.248C33.1787 23.8827 35.2267 22.88 37.488 22.24C39.7493 21.6 42.032 21.28 44.336 21.28C47.1947 21.28 49.8827 21.7493 52.4 22.688C54.9173 23.584 56.9653 24.8853 58.544 26.592C60.1653 28.2987 60.976 30.3893 60.976 32.864C60.976 37.3013 58.2667 40.7573 52.848 43.232C56.048 43.9573 58.3947 45.1733 59.888 46.88C61.3813 48.5867 62.128 50.4853 62.128 52.576C62.128 54.4107 61.5733 56.2667 60.464 58.144C59.3973 59.9787 57.8613 61.6853 55.856 63.264C53.8507 64.8 51.4187 66.0587 48.56 67.04C45.744 67.9787 42.5867 68.448 39.088 68.448ZM41.584 41.312C43.5467 41.3547 45.2533 41.056 46.704 40.416C48.1973 39.7333 49.3493 38.88 50.16 37.856C51.0133 36.7893 51.44 35.7013 51.44 34.592C51.44 33.1413 50.672 31.8613 49.136 30.752C47.6 29.6 45.1893 29.024 41.904 29.024C42.0747 29.8347 42.1813 30.6453 42.224 31.456C42.3093 32.2667 42.352 33.056 42.352 33.824C42.352 35.0613 42.2667 36.2987 42.096 37.536C41.968 38.7733 41.7973 40.032 41.584 41.312ZM40.88 60.64C42.7147 60.64 44.336 60.2773 45.744 59.552C47.152 58.784 48.2613 57.824 49.072 56.672C49.8827 55.4773 50.288 54.2613 50.288 53.024C50.288 51.3173 49.4773 49.7387 47.856 48.288C46.2347 46.8373 43.696 45.9413 40.24 45.6C40.0693 46.9227 39.7067 48.3307 39.152 49.824C38.64 51.3173 38.1493 52.7467 37.68 54.112C37.2107 55.4773 36.976 56.672 36.976 57.696C36.976 58.592 37.2533 59.3173 37.808 59.872C38.3627 60.384 39.3867 60.64 40.88 60.64Z" fill="#7267FF"/>
<defs>
<clipPath id="clip0_2128_379">
<rect width="31" height="31" fill="white" transform="translate(47 5)"/>
</clipPath>
</defs>
</svg>
